<?xml version="1.0" standalone="no"?>
<!DOCTYPE svg PUBLIC "-//W3C//DTD SVG 20010904//EN"
 "http://www.w3.org/TR/2001/REC-SVG-20010904/DTD/svg10.dtd">
<svg version="1.0" xmlns="http://www.w3.org/2000/svg"
 width="169.000000pt" height="169.000000pt" viewBox="0 0 169.000000 169.000000"
 preserveAspectRatio="xMidYMid meet">
<metadata>
Created by potrace 1.11, written by Peter Selinger 2001-2013
</metadata>
<g transform="translate(0.000000,169.000000) scale(0.100000,-0.100000)"
fill="#000000" stroke="none">
<path d="M1078 1495 c-2 -2 -20 -6 -41 -9 -21 -3 -47 -10 -56 -16 -10 -5 -21
-6 -25 -3 -3 3 -6 1 -6 -5 0 -6 -10 -14 -22 -18 -13 -3 -31 -13 -40 -22 -10
-8 -18 -11 -18 -7 0 5 -9 0 -20 -11 -27 -27 -48 -44 -55 -44 -14 0 -165 -148
-165 -162 0 -4 -7 -8 -15 -8 -8 0 -14 -3 -13 -8 2 -4 -3 -14 -10 -22 -38 -45
-55 -68 -70 -92 -9 -16 -20 -28 -24 -28 -4 0 -8 -7 -8 -15 0 -9 -7 -18 -15
-21 -8 -4 -12 -10 -9 -15 3 -5 -2 -12 -10 -15 -9 -3 -14 -10 -11 -14 3 -4 -4
-19 -15 -33 -11 -14 -20 -30 -20 -36 0 -6 -5 -11 -12 -11 -6 0 -9 -3 -5 -6 3
-4 -5 -26 -18 -50 -14 -24 -25 -48 -25 -52 0 -4 -5 -20 -11 -37 -19 -47 -38
-114 -47 -160 -8 -39 -8 -161 0 -202 8 -41 49 -123 61 -123 6 0 8 -3 5 -6 -7
-7 28 -44 42 -44 5 0 14 -8 19 -18 6 -9 11 -14 11 -9 0 4 10 1 23 -7 26 -17
114 -15 167 5 63 23 178 91 217 128 12 12 25 21 29 21 4 0 16 10 28 23 31 32
76 68 76 61 0 -3 16 10 35 30 19 20 37 36 40 36 3 0 16 11 29 25 13 14 26 25
30 25 4 0 21 12 36 28 16 15 47 44 68 64 22 21 42 35 46 31 3 -3 6 -1 6 5 0 6
54 66 121 133 66 67 124 131 128 142 27 71 -60 95 -204 56 -22 -6 -47 -13 -55
-14 -8 -2 -15 -4 -15 -5 0 -1 -8 -3 -17 -6 -28 -6 -42 -10 -58 -17 -23 -8
-244 -81 -250 -82 -3 0 -14 -6 -25 -12 -11 -6 -24 -11 -30 -12 -17 -2 -109
-32 -132 -43 -12 -6 -20 -15 -17 -19 2 -4 0 -10 -5 -13 -5 -4 -5 -22 1 -45 13
-50 53 -71 102 -52 17 7 38 14 46 16 8 2 27 8 43 14 15 6 27 7 27 3 0 -4 4 -2
8 3 6 9 105 44 129 47 5 0 19 5 33 10 14 6 37 12 53 15 46 7 33 -20 -48 -102
-41 -41 -75 -73 -75 -71 0 3 -10 -5 -23 -17 -34 -32 -67 -58 -67 -52 0 3 -9
-3 -19 -12 -37 -33 -50 -43 -61 -43 -5 0 -10 -5 -10 -11 0 -5 -4 -8 -9 -5 -5
4 -11 2 -13 -2 -4 -12 -165 -96 -211 -111 -80 -27 -136 -30 -171 -11 -29 15
-35 37 -31 110 3 63 7 77 30 140 9 25 17 51 17 58 1 6 4 12 8 12 4 0 7 6 7 13
0 14 93 209 103 217 3 3 12 20 19 38 8 17 18 32 23 32 5 0 7 4 4 8 -3 5 3 18
14 29 10 12 16 24 13 27 -4 3 -1 6 5 6 7 0 12 6 12 13 0 26 131 167 195 210
64 43 109 71 115 73 3 0 12 4 20 7 47 21 125 44 139 42 9 -2 19 -4 23 -4 4 -1
7 -30 6 -65 -2 -69 11 -96 40 -91 9 2 20 4 23 4 11 2 46 36 56 56 12 24 10 71
-5 107 -14 34 -77 96 -110 110 -27 10 -78 18 -84 13z"/>
</g>
</svg>
